<svg width="30" height="30" viewBox="0 0 30 30" fill="none" xmlns="http://www.w3.org/2000/svg">
<path d="M19.5 10C19.5 12.4864 17.4864 14.5 15 14.5C12.5136 14.5 10.5 12.4864 10.5 10C10.5 7.51364 12.5136 5.5 15 5.5C17.4864 5.5 19.5 7.51364 19.5 10ZM5.5 22.5C5.5 21.8524 5.82044 21.2481 6.43228 20.6834C7.04751 20.1156 7.92348 19.6222 8.93437 19.2173C10.957 18.407 13.3938 18 15 18C16.6062 18 19.043 18.407 21.0656 19.2173C22.0765 19.6222 22.9525 20.1156 23.5677 20.6834C24.1796 21.2481 24.5 21.8524 24.5 22.5V24.5H5.5V22.5Z" fill="#224CFF" stroke="#224CFF"/>
</svg>
